<?xml version="1.0" encoding="UTF-8"?>
<svg version="1.1" xmlns="http://www.w3.org/2000/svg" width="503" height="316">
<path d="M0 0 C0.85624466 -0.00983917 1.71248932 -0.01967834 2.59468079 -0.02981567 C28.45720974 -0.26576018 51.43114717 1.45627345 75.87402344 10.5456543 C79.76693184 11.89316298 81.89768313 12.54963683 85.75 10.86328125 C103.11151187 3.34230243 125.21922649 8.43657474 141.953125 14.8984375 C149.57480325 17.92361127 156.54981649 21.80863784 163.5625 26.05078125 C164.82006013 26.80047541 166.07812963 27.54931572 167.33666992 28.29736328 C171.19263033 30.59479571 175.0353098 32.91378437 178.875 35.23828125 C179.46639771 35.59593567 180.05779541 35.95359009 180.66711426 36.32208252 C185.81927174 39.43859988 190.96724177 42.5619526 196.10620117 45.70019531 C202.48675783 49.59389904 208.88939896 53.44653519 215.32421875 57.25 C216.03761917 57.67190613 216.75101959 58.09381226 217.48603821 58.52850342 C220.94330181 60.57194972 224.4030714 62.61098787 227.86645508 64.64404297 C257.06654089 81.83690582 257.06654089 81.83690582 262.875 99.23828125 C265.97528898 111.60043982 263.90730218 125.11992037 257.875 136.23828125 C255.06761002 140.83669928 251.91823544 144.41922214 248.0625 148.11328125 C244.7740306 151.28629074 241.61791716 154.49164792 238.64453125 157.96484375 C233.31632231 164.1320309 227.41320395 169.74305048 221.61328125 175.4609375 C217.74760237 179.2931473 213.91706076 183.10239212 210.375 187.23828125 C205.15819713 193.32968389 199.3201226 198.83481527 193.61328125 204.4609375 C189.75804096 208.28279908 185.93632988 212.08019977 182.40625 216.20703125 C177.42419511 222.02433029 171.86789125 227.30159021 166.41796875 232.67480469 C161.19779706 237.82814129 156.0508495 242.99153802 151.30029297 248.58813477 C147.82786789 252.60836792 144.79506361 255.37723436 139.375 256.23828125 C135.11318632 256.48181346 132.43521861 255.7221547 128.875 253.23828125 C126.38977012 250.55154624 125.0331762 248.71280986 123.875 245.23828125 C123.58109375 246.5840625 123.58109375 246.5840625 123.28125 247.95703125 C118.36902306 268.4528747 108.13560616 285.73829358 90.1875 297.48828125 C79.17457867 303.72553762 65.91429394 305.97964449 53.3359375 305.05078125 C49.86780864 305.31501964 47.58688912 306.79661354 44.5625 308.48828125 C27.82277484 317.28425806 9.76160174 318.72644929 -8.3671875 313.5234375 C-11.95906155 312.29503151 -15.13729866 310.7995545 -18.5 309.05078125 C-24.55726553 306.04835421 -29.63375013 305.71524211 -36.24584961 305.55859375 C-53.86251414 305.05190741 -68.46288298 298.46360645 -80.72460938 285.77099609 C-93.16542173 272.15463975 -97.69953756 255.82903839 -101.125 238.23828125 C-101.23714844 239.23408203 -101.23714844 239.23408203 -101.3515625 240.25 C-102.55937924 248.36131828 -102.55937924 248.36131828 -106.125 251.30078125 C-110.43462953 254.08408366 -113.98733438 255.20380807 -119.125 254.23828125 C-123.7607493 251.57945068 -127.36515957 248.27793373 -131.0625 244.48828125 C-131.54912109 244.00101563 -132.03574219 243.51375 -132.53710938 243.01171875 C-135.24309167 240.27381792 -137.81317228 237.45944625 -140.31640625 234.53515625 C-144.97324168 229.16439651 -150.06657821 224.22550542 -155.125 219.23828125 C-160.7018291 213.73994639 -166.20273614 208.24435341 -171.296875 202.2890625 C-175.2001726 197.91036327 -179.44937479 193.85484528 -183.625 189.73828125 C-189.0355141 184.40429493 -194.33672831 179.07783344 -199.27929688 173.30664062 C-203.19049052 168.92362044 -207.44330624 164.860828 -211.625 160.73828125 C-217.69759376 154.7515799 -223.59230057 148.72860121 -229.125 142.23828125 C-230.176875 141.09359375 -230.176875 141.09359375 -231.25 139.92578125 C-239.55943378 128.01559283 -240.16665525 115.27933987 -239.125 101.23828125 C-237.11808981 90.37803011 -231.740587 82.89933471 -223.125 76.23828125 C-220.9542732 74.84188385 -218.75131916 73.49468052 -216.5234375 72.19140625 C-215.89821198 71.82323792 -215.27298645 71.45506958 -214.6288147 71.07574463 C-213.28726633 70.28638492 -211.94431952 69.49939788 -210.60009766 68.71459961 C-206.98465846 66.60342185 -203.37978887 64.47430752 -199.7734375 62.34765625 C-199.04074646 61.91622314 -198.30805542 61.48479004 -197.55316162 61.0402832 C-190.70468193 57.00302049 -183.91052987 52.88018756 -177.125 48.73828125 C-167.54994442 42.90956628 -157.9603914 37.1056721 -148.33544922 31.35961914 C-146.97371241 30.54579727 -145.61298747 29.73027922 -144.25341797 28.9128418 C-133.01710374 22.16061531 -121.62614771 15.32787084 -109.0625 11.36328125 C-107.25072266 10.77933594 -107.25072266 10.77933594 -105.40234375 10.18359375 C-90.96008786 6.01788943 -74.49979786 6.95999055 -60.26953125 11.4609375 C-55.13970975 12.72905486 -51.75653987 11.1683309 -46.9609375 9.21948242 C-32.03928882 3.17985595 -16.08475915 0.1522303 0 0 Z M-0.125 16.23828125 C-0.09311584 18.19106995 -0.06123169 20.14385864 -0.02838135 22.15582275 C0.25926746 40.57651582 0.44236988 58.99564722 0.52009201 77.41846085 C0.56271406 86.8898219 0.6424846 96.35809869 0.81103516 105.828125 C0.95792621 114.0865869 1.03376811 122.34219568 1.02580285 130.6020124 C1.02402986 134.97356654 1.05678688 139.33846719 1.17479706 143.70856476 C1.85868641 170.2752363 1.85868641 170.2752363 -3.09140015 176.85012817 C-7.77741211 180.96797697 -12.92401442 183.33765778 -18.77697563 185.36324692 C-22.03304777 186.5766819 -24.56978112 188.27491622 -27.40625 190.26953125 C-28.27685059 190.84606445 -29.14745117 191.42259766 -30.04443359 192.01660156 C-30.89602051 192.58475586 -31.74760742 193.15291016 -32.625 193.73828125 C-39.82444372 198.48910888 -47.08503346 203.08176335 -54.5 207.48828125 C-55.70994629 208.22377197 -55.70994629 208.22377197 -56.94433594 208.97412109 C-60.94967112 211.40250788 -64.96376996 213.68678925 -69.1484375 215.79296875 C-76.9330903 219.5907837 -76.9330903 219.5907837 -81.890625 226.27978516 C-82.84133383 231.70239065 -82.10696093 236.87296622 -81.125 242.23828125 C-80.96386719 243.36105469 -80.80273438 244.48382813 -80.63671875 245.640625 C-77.92874802 259.65943948 -67.99305741 272.83648631 -56.41796875 280.9921875 C-46.14468298 286.57511452 -34.73196528 288.58864941 -23.5078125 285.4453125 C-14.28117402 282.15312856 -1.21378417 277.1586509 4.875 269.23828125 C5.56564642 266.09256326 5.45443007 263.39295607 4.875 260.23828125 C4.11316406 259.89796875 3.35132813 259.55765625 2.56640625 259.20703125 C-4.70871256 255.79199421 -10.61420336 252.12021317 -16.125 246.23828125 C-16.67414063 245.65691406 -17.22328125 245.07554687 -17.7890625 244.4765625 C-22.57742206 238.31054642 -21.7406624 230.65261558 -21.125 223.23828125 C-20.795 222.24828125 -20.465 221.25828125 -20.125 220.23828125 C-16.90730566 219.16571647 -14.52536477 219.08550285 -11.140625 219.04541016 C-9.90924805 219.02934723 -8.67787109 219.0132843 -7.40917969 218.99673462 C-6.06446014 218.985251 -4.71973288 218.97464181 -3.375 218.96484375 C-2.69747681 218.95952007 -2.01995361 218.9541964 -1.32189941 218.9487114 C2.26064928 218.92202365 5.84316358 218.90263033 9.42578125 218.88818359 C12.39223876 218.8748153 15.35801306 218.84690588 18.32421875 218.80615234 C21.90687842 218.75693261 25.48891606 218.73207717 29.07189941 218.72495651 C30.43712155 218.71823197 31.80232914 218.70297829 33.1673584 218.6790657 C35.07487064 218.64754198 36.98285741 218.65036961 38.890625 218.65478516 C39.97633789 218.6466983 41.06205078 218.63861145 42.18066406 218.63027954 C44.875 219.23828125 44.875 219.23828125 46.72192383 221.61141968 C48.92916156 226.63980212 48.75299498 232.16253783 47.25390625 237.4140625 C41.78854443 249.53502049 31.65638447 255.47559391 19.875 260.23828125 C19.29556993 263.39295607 19.18435358 266.09256326 19.875 269.23828125 C26.38402027 277.70529948 41.70841704 283.83071999 51.875 286.23828125 C63.86771054 287.5903145 75.23884982 284.41240321 84.875 277.23828125 C96.69291787 267.45793542 104.33660845 253.18711899 105.83203125 237.97900391 C106.46317039 229.81748492 106.46317039 229.81748492 103.58886719 222.42333984 C99.76718376 219.00091999 95.15369153 216.86033202 90.57470703 214.62402344 C85.61973486 212.08066822 81.00104072 208.98604797 76.3125 205.98828125 C74.25824631 204.70424989 72.20223243 203.4230306 70.14453125 202.14453125 C65.97161715 199.54614206 61.80230923 196.94214539 57.63671875 194.33203125 C56.60812744 193.68782227 55.57953613 193.04361328 54.51977539 192.37988281 C52.6032061 191.17933476 50.68698597 189.97822897 48.77124023 188.77636719 C47.86962158 188.21208008 46.96800293 187.64779297 46.0390625 187.06640625 C44.71588768 186.1755407 44.71588768 186.1755407 43.36598206 185.26667786 C40.78837855 183.64016106 38.28622641 182.65343009 35.39733887 181.69566345 C29.86744572 179.58260787 25.34008126 177.16707383 21.875 172.23828125 C18.67229987 161.88827077 19.72394488 150.32463126 20.04990911 139.62200952 C20.16301409 135.27969145 20.17304952 130.93711534 20.19436646 126.59355164 C20.250152 118.38240914 20.39761104 110.17561885 20.57865727 101.96638697 C20.78038042 92.61505319 20.87894614 83.26350299 20.9691751 73.91053259 C21.15695094 54.68391913 21.47686813 35.46161075 21.875 16.23828125 C14.615 16.23828125 7.355 16.23828125 -0.125 16.23828125 Z M33.875 17.23828125 C33.26565128 36.38722921 32.80823065 55.53419391 32.52788353 74.6908493 C32.39420078 83.58773655 32.21228158 92.47857896 31.91357422 101.37158203 C31.65309966 109.13008126 31.48640432 116.88420528 31.42869914 124.64695501 C31.39498208 128.75429007 31.3168711 132.84912136 31.12601852 136.95240784 C29.87047876 154.08768188 29.87047876 154.08768188 36.39594269 169.14697266 C42.35957906 174.37775867 49.46828315 177.67714137 56.70189285 180.79962158 C61.26544897 182.86869893 65.34433782 185.5229256 69.5 188.30078125 C71.0108224 189.26387411 72.52359972 190.22391308 74.0390625 191.1796875 C75.19583496 191.91276123 75.19583496 191.91276123 76.37597656 192.66064453 C82.21057636 196.34403491 88.06911218 199.98943058 93.92480469 203.63916016 C98.81590643 206.69036637 103.69719305 209.75489104 108.5546875 212.859375 C109.43382812 213.42011719 110.31296875 213.98085937 111.21875 214.55859375 C112.86965347 215.61333763 114.51821236 216.67176302 116.1640625 217.734375 C116.89109375 218.1984375 117.618125 218.6625 118.3671875 219.140625 C119.31634033 219.75151978 119.31634033 219.75151978 120.28466797 220.37475586 C121.86632723 221.39734065 121.86632723 221.39734065 123.875 221.23828125 C124.46884242 216.77038406 124.68072865 212.68900387 123.875 208.23828125 C121.18089668 204.87608225 117.84107661 203.15940902 114.0625 201.17578125 C112.04524083 200.01099161 110.02832006 198.84561572 108.01171875 197.6796875 C106.98739746 197.11008301 105.96307617 196.54047852 104.90771484 195.95361328 C100.28880089 193.34111212 95.83979354 190.47845363 91.375 187.61328125 C89.86513353 186.6618867 88.35474959 185.71131266 86.84375 184.76171875 C84.34835037 183.19023371 81.89696773 181.57540923 79.46875 179.90234375 C77.10805295 178.05828506 77.10805295 178.05828506 74.875 178.23828125 C74.38 174.77328125 74.38 174.77328125 73.875 171.23828125 C73.32972656 171.09132812 72.78445313 170.944375 72.22265625 170.79296875 C63.05765397 168.06696807 55.26237541 163.28480991 49.875 155.23828125 C45.64450459 147.34135648 45.44697338 137.76838435 47.671875 129.15234375 C49.23852765 125.04289335 50.7733912 122.33100292 53.875 119.23828125 C53.875 118.57828125 53.875 117.91828125 53.875 117.23828125 C54.390625 116.99078125 54.90625 116.74328125 55.4375 116.48828125 C58.05906477 115.14388906 60.57067204 113.66020604 63.09375 112.140625 C69.89315693 108.6961886 79.75298246 109.18960676 86.9765625 111.02734375 C91.07088858 112.60951695 93.78706877 114.14147665 96.875 117.23828125 C97.535 117.23828125 98.195 117.23828125 98.875 117.23828125 C99.1225 117.75390625 99.37 118.26953125 99.625 118.80078125 C100.96939219 121.42234602 102.45307521 123.93395329 103.97265625 126.45703125 C107.41938631 133.26096592 107.146496 144.33077417 104.9375 151.55078125 C101.22022369 159.52634592 94.70458206 165.66759939 86.52734375 168.71484375 C85.98207031 168.88757813 85.43679688 169.0603125 84.875 169.23828125 C86.04706803 172.75448533 86.65361945 172.98718408 89.75 174.76953125 C90.96949341 175.48351074 90.96949341 175.48351074 92.21362305 176.21191406 C93.09187744 176.71561523 93.97013184 177.21931641 94.875 177.73828125 C102.63752482 182.27980359 110.24937423 186.98246986 117.75585938 191.93554688 C120.60411381 194.20207573 120.60411381 194.20207573 123.875 195.23828125 C123.88308685 194.05255524 123.89117371 192.86682922 123.89950562 191.64517212 C123.9768667 180.49085982 124.06458025 169.33667101 124.16252708 158.18251991 C124.21255161 152.44755108 124.25888096 146.71260122 124.296875 140.97753906 C124.33365019 135.44670494 124.37998864 129.91602728 124.43306351 124.38532639 C124.45164888 122.27136342 124.46674138 120.15736686 124.47834396 118.04335403 C124.49513574 115.09075011 124.52415318 112.1385078 124.55615234 109.18603516 C124.55831253 108.30490555 124.56047272 107.42377594 124.56269836 106.51594543 C124.64689568 100.46638557 124.64689568 100.46638557 126.875 98.23828125 C129.1875 97.97265625 129.1875 97.97265625 131.875 97.98828125 C132.761875 97.983125 133.64875 97.97796875 134.5625 97.97265625 C136.875 98.23828125 136.875 98.23828125 138.875 100.23828125 C139.03983887 101.67337036 139.03983887 101.67337036 139.20800781 103.13745117 C139.59322445 106.32831382 139.59322445 106.32831382 141.89355469 108.1887207 C144.78945589 110.00358849 147.68798903 111.80291052 150.625 113.55078125 C151.60855469 114.18306641 152.59210938 114.81535156 153.60546875 115.46679688 C160.17648786 119.45298727 165.41936408 121.00149305 173.11401367 121.13256836 C176.70575809 121.27008939 178.96258231 122.1473147 181.875 124.23828125 C186.71244551 129.46795207 187.17167856 133.61940911 187.08984375 140.51171875 C186.69823084 145.48164254 184.9744346 148.22130424 181.375 151.55078125 C176.23037716 155.02340167 170.87737654 154.71124788 164.875 154.23828125 C160.11647526 152.59442725 157.67930517 150.39280742 154.875 146.23828125 C153.875 143.23828125 153.875 143.23828125 154.234375 139.9453125 C154.67355678 135.56667019 154.81825806 132.54776358 153.875 128.23828125 C150.641295 125.10632073 144.7014806 120.23828125 139.875 120.23828125 C139.875 156.86828125 139.875 193.49828125 139.875 231.23828125 C145.4912748 226.45646968 145.4912748 226.45646968 150.8125 221.43359375 C151.48023438 220.76714844 152.14796875 220.10070312 152.8359375 219.4140625 C153.50882812 218.73730469 154.18171875 218.06054688 154.875 217.36328125 C155.54789062 216.69425781 156.22078125 216.02523437 156.9140625 215.3359375 C160.13384326 212.10994095 163.25275444 208.84821416 166.21875 205.38671875 C171.50527306 199.2595666 177.37786833 193.69302068 183.13671875 188.015625 C187.00239763 184.1834152 190.83293924 180.37417038 194.375 176.23828125 C199.59180287 170.14687861 205.4298774 164.64174723 211.13671875 159.015625 C215.70866896 154.48325878 220.11701965 149.90827127 224.30175781 145.01660156 C226.25721439 142.80624375 228.35669925 140.79615634 230.50463867 138.77539062 C238.02118266 131.67731872 243.37995999 124.29260135 244.125 113.67578125 C244.02751815 106.22538306 241.67232955 98.6075093 237.875 92.23828125 C235.70296452 90.59560205 233.74361718 89.29736375 231.390625 87.98828125 C230.74730225 87.61323456 230.10397949 87.23818787 229.44116211 86.85177612 C227.34374866 85.63286029 225.23460024 84.43595792 223.125 83.23828125 C221.65879176 82.38997681 220.19362995 81.5398613 218.72949219 80.68798828 C215.80065987 78.98474135 212.86841439 77.28763162 209.93359375 75.59472656 C204.61352565 72.51675798 199.36350539 69.32768952 194.125 66.11328125 C192.30215412 64.9998841 190.47923655 63.88660432 188.65625 62.7734375 C187.73328125 62.20898926 186.8103125 61.64454102 185.859375 61.06298828 C175.54879565 54.75889224 165.22402422 48.47908024 154.875 42.23828125 C153.92447754 41.66319824 152.97395508 41.08811523 151.99462891 40.49560547 C142.53467805 34.79326576 133.42389669 29.67668745 122.875 26.23828125 C121.885 25.90828125 120.895 25.57828125 119.875 25.23828125 C117.95593083 25.15561639 116.03410526 25.13087462 114.11328125 25.140625 C112.43588867 25.14545898 112.43588867 25.14545898 110.72460938 25.15039062 C109.55736328 25.15876953 108.39011719 25.16714844 107.1875 25.17578125 C106.00865234 25.18029297 104.82980469 25.18480469 103.61523438 25.18945312 C100.70177211 25.20124852 97.78841137 25.21770855 94.875 25.23828125 C97.80475222 27.52579085 100.81500365 29.43806917 104.0390625 31.28515625 C105.06515625 31.87490234 106.09125 32.46464844 107.1484375 33.07226562 C108.25445312 33.70455078 109.36046875 34.33683594 110.5 34.98828125 C111.66682622 35.65792518 112.83349009 36.32785209 114 36.99804688 C116.42287512 38.38976894 118.84644346 39.78027229 121.27050781 41.16992188 C126.81190011 44.34799146 132.34293586 47.54401206 137.875 50.73828125 C144.3972176 54.50211975 150.9201378 58.26472757 157.4453125 62.0234375 C181.78549951 76.04746968 181.78549951 76.04746968 192.06494141 82.09204102 C197.10045657 85.05279592 202.15613786 87.96144833 207.265625 90.79296875 C208.29139648 91.37159668 209.31716797 91.95022461 210.37402344 92.54638672 C212.33068725 93.64951723 214.29719953 94.73541172 216.27441406 95.80126953 C218.6568858 97.1587038 220.8179864 98.42523903 222.875 100.23828125 C223.56821206 103.67133146 223.41961032 105.1490606 221.875 108.23828125 C216.81526512 107.74332865 213.28904779 106.69687963 208.91015625 104.1328125 C207.79318359 103.48634766 206.67621094 102.83988281 205.52539062 102.17382812 C204.32931124 101.46634164 203.13335071 100.75865419 201.9375 100.05078125 C200.68354794 99.31992414 199.42898087 98.59012128 198.17382812 97.86132812 C194.99691187 96.01336979 191.82760639 94.15279048 188.66046143 92.28814697 C186.00545601 90.72698237 183.34459737 89.175913 180.68359375 87.625 C177.7736203 85.92887203 174.86415927 84.2319361 171.95727539 82.53051758 C164.29276087 78.04747577 156.58963971 73.63419262 148.875 69.23828125 C139.16402041 63.70427192 129.48601738 58.11717619 119.83886719 52.47241211 C111.23051795 47.43746193 102.59526172 42.45016003 93.95263672 37.47436523 C92.94217285 36.89243408 91.93170898 36.31050293 90.890625 35.7109375 C89.89740234 35.14165527 88.90417969 34.57237305 87.88085938 33.98583984 C85.82752063 32.79206152 83.78754724 31.57507142 81.75976562 30.33837891 C75.89492493 26.78738665 70.55767018 24.04155053 63.875 22.48828125 C63.19050781 22.30652344 62.50601562 22.12476563 61.80078125 21.9375 C55.7756888 20.43385564 49.65619235 19.5711793 43.51953125 18.66699219 C42.5912854 18.52905243 41.66303955 18.39111267 40.70666504 18.24899292 C38.42963024 17.91080674 36.15240843 17.57394046 33.875 17.23828125 Z M-22.125 19.23828125 C-22.09245117 20.25140381 -22.05990234 21.26452637 -22.02636719 22.30834961 C-21.92059405 26.10522397 -21.89533063 29.89928053 -21.89306641 33.69750977 C-21.88113741 35.33387752 -21.84802034 36.97024444 -21.79248047 38.60571289 C-21.36367024 51.8624216 -21.36367024 51.8624216 -24.34692383 55.88653564 C-27.54832446 58.99185254 -31.19636563 61.13897544 -35.125 63.23828125 C-37.68219169 65.79547294 -37.20711851 71.59199542 -37.35375977 75.08447266 C-37.21805545 78.72077245 -36.94602447 81.25767738 -34.56494141 84.1015625 C-30.5822532 87.38892297 -26.12108256 89.82514095 -21.48022461 92.06005859 C-18.29260254 93.65469569 -15.21962635 95.46992334 -12.125 97.23828125 C-12.125 71.16828125 -12.125 45.09828125 -12.125 18.23828125 C-17.35872768 18.1812057 -17.35872768 18.1812057 -22.125 19.23828125 Z M-41.8125 23.73828125 C-42.62074219 24.01671875 -43.42898437 24.29515625 -44.26171875 24.58203125 C-44.87660156 24.79859375 -45.49148437 25.01515625 -46.125 25.23828125 C-46.02445313 26.81416016 -46.02445313 26.81416016 -45.921875 28.421875 C-45.90309446 29.83980547 -45.88764941 31.25778283 -45.875 32.67578125 C-45.82214844 33.36349609 -45.76929688 34.05121094 -45.71484375 34.75976562 C-45.73897401 37.35376851 -45.95050482 38.90040097 -47.125 41.23828125 C-49.11431438 42.52231249 -51.14697611 43.74002687 -53.203125 44.9140625 C-56.39443604 46.91126438 -58.72115957 48.63935176 -59.67175293 52.40304565 C-60.1436813 57.92914593 -59.69295843 63.4607876 -59.31109619 68.98272705 C-57.9906581 90.30851685 -57.9906581 90.30851685 -61.84082031 97.39746094 C-66.26424794 101.90226568 -71.5898945 104.12923818 -77.47216797 106.20214844 C-81.67765675 107.84471188 -85.15756727 110.37839258 -88.8125 112.98828125 C-90.02257047 113.79882064 -91.23459472 114.60645662 -92.44921875 115.41015625 C-94.93770246 116.98933121 -94.93770246 116.98933121 -96.125 118.23828125 C-96.21939978 120.50820012 -96.24242226 122.78110092 -96.23852539 125.05297852 C-96.23867142 125.76513519 -96.23881744 126.47729187 -96.2389679 127.21102905 C-96.2382687 129.57561237 -96.23047606 131.94011786 -96.22265625 134.3046875 C-96.22079209 135.93993588 -96.21936818 137.57518482 -96.21836853 139.21043396 C-96.21454318 143.5226291 -96.20471275 147.83479077 -96.19366455 152.14697266 C-96.1834508 156.54394071 -96.17887099 160.94091414 -96.17382812 165.33789062 C-96.16309049 173.97136956 -96.14601387 182.60482125 -96.125 191.23828125 C-94.24013784 190.14289715 -92.35580155 189.04660814 -90.47167969 187.94995117 C-88.89758331 187.03435677 -88.89758331 187.03435677 -87.29168701 186.1002655 C-82.59505492 183.33868693 -77.97054084 180.47679403 -73.375 177.55078125 C-72.47523438 176.99583984 -71.57546875 176.44089844 -70.6484375 175.86914062 C-69.80023438 175.32708984 -68.95203125 174.78503906 -68.078125 174.2265625 C-67.31661133 173.74743408 -66.55509766 173.26830566 -65.77050781 172.7746582 C-65.22749023 172.26765381 -64.68447266 171.76064941 -64.125 171.23828125 C-64.125 169.91828125 -64.125 168.59828125 -64.125 167.23828125 C-65.5094177 166.29282526 -66.90260242 165.35779258 -68.3359375 164.48828125 C-74.19985415 160.39122158 -78.86304015 154.32553789 -80.125 147.23828125 C-80.92194164 138.34242017 -80.81157914 130.07537011 -76.125 122.23828125 C-75.1261926 121.23709007 -74.12643369 120.2368455 -73.125 119.23828125 C-73.125 118.57828125 -73.125 117.91828125 -73.125 117.23828125 C-72.609375 116.99078125 -72.09375 116.74328125 -71.5625 116.48828125 C-68.94093523 115.14388906 -66.42932796 113.66020604 -63.90625 112.140625 C-57.10684307 108.6961886 -47.24701754 109.18960676 -40.0234375 111.02734375 C-35.92911142 112.60951695 -33.21293123 114.14147665 -30.125 117.23828125 C-29.465 117.23828125 -28.805 117.23828125 -28.125 117.23828125 C-27.8775 117.75390625 -27.63 118.26953125 -27.375 118.80078125 C-26.03060781 121.42234602 -24.54692479 123.93395329 -23.02734375 126.45703125 C-19.58290735 133.25643818 -20.07632551 143.11626371 -21.9140625 150.33984375 C-23.4962357 154.43416983 -25.0281954 157.15035002 -28.125 160.23828125 C-28.125 160.89828125 -28.125 161.55828125 -28.125 162.23828125 C-28.640625 162.48578125 -29.15625 162.73328125 -29.6875 162.98828125 C-32.27463916 164.25160666 -32.27463916 164.25160666 -35.0625 166.23828125 C-40.23676516 169.27929674 -46.26550974 169.56862522 -52.125 170.23828125 C-52.42535156 171.43066406 -52.72570312 172.62304688 -53.03515625 173.8515625 C-55.19062022 179.54895099 -59.4452592 181.5586747 -64.5625 184.42578125 C-66.45082843 185.55547559 -68.33884067 186.68569858 -70.2265625 187.81640625 C-73.15785171 189.53290063 -76.09780483 191.22321792 -79.06933594 192.86914062 C-89.53246342 197.90543578 -89.53246342 197.90543578 -96.97998047 206.17089844 C-97.79762442 210.34588441 -97.22071933 214.1780324 -96.125 218.23828125 C-86.66424755 213.39097438 -77.79918729 207.67095948 -68.84375 201.96386719 C-64.05742582 198.92599548 -59.24681917 195.92706514 -54.4375 192.92578125 C-53.44226318 192.30413086 -52.44702637 191.68248047 -51.42163086 191.04199219 C-46.10666668 187.72242592 -40.78995258 184.40567274 -35.47265625 181.08984375 C-33.84686646 180.07531128 -33.84686646 180.07531128 -32.18823242 179.0402832 C-30.1146742 177.74635366 -28.04064346 176.45318094 -25.96606445 175.16088867 C-24.55587036 174.28074097 -24.55587036 174.28074097 -23.1171875 173.3828125 C-21.88524658 172.61481323 -21.88524658 172.61481323 -20.62841797 171.83129883 C-19.38922607 171.04275513 -19.38922607 171.04275513 -18.125 170.23828125 C-17.05137207 169.7690625 -15.97774414 169.29984375 -14.87158203 168.81640625 C-11.66234038 165.80399809 -11.64306855 164.99365574 -11.28515625 160.75463867 C-11.21842685 158.45174572 -11.18828495 156.14760941 -11.1875 153.84375 C-11.17227295 152.62303299 -11.1570459 151.40231598 -11.14135742 150.14460754 C-11.1197446 147.56157613 -11.11405378 144.97836985 -11.12304688 142.39526367 C-11.12498873 138.44867782 -11.04185899 134.50991145 -10.953125 130.56445312 C-10.94270815 128.05340162 -10.93733466 125.5423231 -10.9375 123.03125 C-10.90470947 121.85499557 -10.87191895 120.67874115 -10.83813477 119.46684265 C-10.90574832 113.14145291 -10.90574832 113.14145291 -14.23902893 108.01182556 C-16.79162698 106.2016176 -19.35586928 104.69095178 -22.125 103.23828125 C-23.12007568 102.59270264 -24.11515137 101.94712402 -25.14038086 101.28198242 C-26.35286499 100.53911987 -26.35286499 100.53911987 -27.58984375 99.78125 C-28.49154297 99.22630859 -29.39324219 98.67136719 -30.32226562 98.09960938 C-31.22654297 97.54724609 -32.13082031 96.99488281 -33.0625 96.42578125 C-34.90518901 95.2946635 -36.74764739 94.16316993 -38.58984375 93.03125 C-39.390271 92.54164795 -40.19069824 92.0520459 -41.01538086 91.54760742 C-42.73952725 90.47752328 -44.43658136 89.36389368 -46.125 88.23828125 C-47.02362726 83.462129 -47.00333029 78.58991597 -47.0625 73.73828125 C-47.07434326 73.04045532 -47.08618652 72.34262939 -47.09838867 71.62365723 C-47.19126898 60.00621554 -47.19126898 60.00621554 -44.93408203 56.26367188 C-42.50031211 54.10775139 -39.62822069 52.71190403 -36.796875 51.13671875 C-31.7751626 45.68918864 -33.24370496 38.01327579 -33.515625 30.97167969 C-33.67658088 28.05519271 -33.87626901 25.14843378 -34.125 22.23828125 C-37.13990557 22.23828125 -38.99364114 22.7578086 -41.8125 23.73828125 Z M-144.92749023 50.41064453 C-153.33885796 55.55703191 -161.78987245 60.63099199 -170.27487183 65.65505981 C-172.30241185 66.85729943 -174.3274307 68.06368169 -176.35180664 69.27124023 C-182.11425241 72.70459671 -187.8805199 76.1215801 -193.72880554 79.40722656 C-195.49436654 80.40111223 -197.25350846 81.40547611 -199.01098633 82.41357422 C-201.1364599 83.62853471 -203.27365862 84.82332218 -205.42456055 85.99267578 C-212.90867494 90.31281059 -216.35156099 95.04775851 -218.72802734 103.34326172 C-220.31345836 110.91159846 -220.07949556 119.32744463 -216.453125 126.22265625 C-212.69409136 131.9275426 -207.81281658 136.61161623 -202.95776367 141.37353516 C-201.2368907 143.12443802 -199.64879648 144.92823578 -198.0625 146.80078125 C-193.50873223 152.03881888 -188.56520292 156.8679539 -183.625 161.73828125 C-178.2144859 167.07226757 -172.91327169 172.39872906 -167.97070312 178.16992188 C-164.05950948 182.55294206 -159.80669376 186.6157345 -155.625 190.73828125 C-145.46454471 200.7550243 -145.46454471 200.7550243 -141.65234375 205.20703125 C-137.12136733 210.49786086 -132.13200897 215.33828714 -127.1875 220.23828125 C-126.2074469 221.21330511 -125.2276276 222.18856405 -124.24804688 223.1640625 C-121.87597687 225.52444743 -119.5015914 227.8824503 -117.125 230.23828125 C-114.46430962 229.50523139 -114.46430962 229.50523139 -112.125 227.23828125 C-111.33942993 223.71922426 -111.49509108 220.2075601 -111.55737305 216.61645508 C-111.55664291 215.5236171 -111.55591278 214.43077911 -111.55516052 213.30482483 C-111.55865022 209.68448641 -111.59757923 206.06542678 -111.63671875 202.4453125 C-111.64604189 199.93853966 -111.65316035 197.43175773 -111.65815735 194.92497253 C-111.67531188 188.99623165 -111.71473719 183.06790262 -111.7649048 177.13937348 C-111.82626163 169.72776318 -111.85312632 162.31609608 -111.88085938 154.90429688 C-111.93451545 141.68205755 -112.01891753 128.46019852 -112.125 115.23828125 C-116.57434515 116.98644159 -120.36456131 119.10061367 -124.375 121.67578125 C-125.01179688 122.07087891 -125.64859375 122.46597656 -126.3046875 122.87304688 C-130.16231909 125.2578924 -130.16231909 125.2578924 -132.125 129.23828125 C-131.795 129.89828125 -131.465 130.55828125 -131.125 131.23828125 C-130.62261365 137.69201363 -130.18058315 143.79770629 -134.125 149.23828125 C-139.35467082 154.07572676 -143.50612786 154.53495981 -150.3984375 154.453125 C-155.36836129 154.06151209 -158.10802299 152.33771585 -161.4375 148.73828125 C-164.91012042 143.59365841 -164.59796663 138.24065779 -164.125 132.23828125 C-162.46690928 127.43854496 -160.28445491 125.08077407 -156.125 122.23828125 C-153.56640625 121.90234375 -153.56640625 121.90234375 -150.6875 121.86328125 C-139.4591147 120.49177757 -130.19491323 112.51796298 -121.125 106.23828125 C-120.20251465 105.60712402 -119.2800293 104.9759668 -118.32958984 104.32568359 C-113.67673104 101.22105641 -113.67673104 101.22105641 -109.47998047 97.55908203 C-108.125 96.23828125 -108.125 96.23828125 -105.93359375 95.875 C-105.15113281 95.89175781 -104.36867188 95.90851563 -103.5625 95.92578125 C-102.38494141 95.93158203 -102.38494141 95.93158203 -101.18359375 95.9375 C-99.125 96.23828125 -99.125 96.23828125 -97.125 98.23828125 C-96.72735737 100.22649438 -96.38724651 102.22772464 -96.125 104.23828125 C-92.6995344 102.96832507 -89.78899777 101.50453905 -86.76953125 99.453125 C-85.98255859 98.92267578 -85.19558594 98.39222656 -84.38476562 97.84570312 C-83.57716797 97.29462891 -82.76957031 96.74355469 -81.9375 96.17578125 C-80.31963426 95.07980769 -78.70117339 93.98471199 -77.08203125 92.890625 C-76.37022705 92.40585693 -75.65842285 91.92108887 -74.92504883 91.42163086 C-73.125 90.23828125 -73.125 90.23828125 -71.125 89.23828125 C-71.125 74.71828125 -71.125 60.19828125 -71.125 45.23828125 C-69.805 44.57828125 -68.485 43.91828125 -67.125 43.23828125 C-61.00710933 39.73461946 -61.00710933 39.73461946 -57.54296875 34 C-57.51066998 31.56176462 -57.51066998 31.56176462 -58.125 28.23828125 C-70.13810618 33.86413731 -81.45856537 40.60417621 -92.87792969 47.33251953 C-98.23485526 50.47659179 -103.61721436 53.57625741 -109 56.67578125 C-110.07926758 57.29775391 -111.15853516 57.91972656 -112.27050781 58.56054688 C-114.46114966 59.82295065 -116.651905 61.08515748 -118.84277344 62.34716797 C-124.27159938 65.47508271 -129.69822007 68.60681856 -135.125 71.73828125 C-141.64733275 75.50192044 -148.17013762 79.26472747 -154.6953125 83.0234375 C-156.32206909 83.96110962 -156.32206909 83.96110962 -157.98168945 84.91772461 C-160.14355638 86.16329715 -162.30614321 87.4076211 -164.46948242 88.65063477 C-169.97894163 91.82173064 -175.46382235 95.02752862 -180.91796875 98.29296875 C-182.01286621 98.94450928 -183.10776367 99.5960498 -184.23583984 100.26733398 C-186.3210732 101.51030098 -188.4011337 102.76200078 -190.47509766 104.02368164 C-191.40757324 104.57789795 -192.34004883 105.13211426 -193.30078125 105.703125 C-194.11458252 106.19417725 -194.92838379 106.68522949 -195.7668457 107.19116211 C-198.47432448 108.39339593 -200.19641912 108.67432192 -203.125 108.23828125 C-205.41513653 104.80307645 -205.30342973 103.25295025 -205.125 99.23828125 C-204.40546143 98.96532227 -203.68592285 98.69236328 -202.94458008 98.41113281 C-200.1716198 97.25767354 -197.6302063 95.94089438 -195.01171875 94.47265625 C-194.02373291 93.919729 -193.03574707 93.36680176 -192.01782227 92.79711914 C-190.96006592 92.20020264 -189.90230957 91.60328613 -188.8125 90.98828125 C-187.70382568 90.36493896 -186.59515137 89.74159668 -185.45288086 89.09936523 C-175.98559123 83.7595482 -166.59200035 78.297051 -157.21484375 72.80078125 C-150.9092949 69.10614761 -144.58199366 65.44986328 -138.25 61.80078125 C-137.17274658 61.17969482 -136.09549316 60.5586084 -134.9855957 59.91870117 C-129.4841465 56.7477697 -123.98086119 53.58004458 -118.4765625 50.4140625 C-107.79602387 44.2676406 -97.12719188 38.10158541 -86.5 31.86328125 C-85.55092773 31.30946777 -84.60185547 30.7556543 -83.62402344 30.18505859 C-82.76583008 29.6792627 -81.90763672 29.1734668 -81.0234375 28.65234375 C-80.26724121 28.20842285 -79.51104492 27.76450195 -78.73193359 27.30712891 C-78.20164551 26.95440918 -77.67135742 26.60168945 -77.125 26.23828125 C-77.125 25.90828125 -77.125 25.57828125 -77.125 25.23828125 C-103.5238099 22.0103396 -123.19148126 37.11149487 -144.92749023 50.41064453 Z M-52 125.36328125 C-53.68984251 129.68176767 -53.78460983 133.66498645 -53.125 138.23828125 C-50.96201163 142.64436868 -48.72819521 145.43703095 -44.125 147.23828125 C-39.08174616 147.92254182 -35.29423116 147.81226745 -30.6875 145.55078125 C-27.32843988 142.51943431 -25.43144369 140.49688477 -24.80859375 135.90625 C-24.54286348 130.18876316 -25.15652848 126.63577672 -29.125 122.23828125 C-32.96213196 118.85257658 -36.75901462 118.72536953 -41.6875 118.88671875 C-46.35026146 119.55923242 -48.97690292 121.93710456 -52 125.36328125 Z M75 125.36328125 C73.31015749 129.68176767 73.21539017 133.66498645 73.875 138.23828125 C76.03798837 142.64436868 78.27180479 145.43703095 82.875 147.23828125 C87.91825384 147.92254182 91.70576884 147.81226745 96.3125 145.55078125 C99.67156012 142.51943431 101.56855631 140.49688477 102.19140625 135.90625 C102.45713652 130.18876316 101.84347152 126.63577672 97.875 122.23828125 C94.03786804 118.85257658 90.24098538 118.72536953 85.3125 118.88671875 C80.64973854 119.55923242 78.02309708 121.93710456 75 125.36328125 Z M-158.125 131.23828125 C-159.86721711 134.72271547 -159.71175154 138.4371517 -159.125 142.23828125 C-157.42248281 145.31297648 -155.31273492 147.64441379 -152.125 149.23828125 C-148.33084481 149.76946298 -144.66168822 150.08917473 -141.234375 148.19140625 C-138.42414787 145.87228678 -136.36582208 143.958439 -135.8515625 140.28515625 C-135.66170957 135.99155926 -135.6907332 133.14245161 -138.5 129.73828125 C-142.31719869 126.10285393 -144.68342152 125.84591623 -149.796875 125.87890625 C-153.71504236 126.48372403 -155.42858816 128.40704882 -158.125 131.23828125 Z M159.875 131.23828125 C158.13278289 134.72271547 158.28824846 138.4371517 158.875 142.23828125 C160.57751719 145.31297648 162.68726508 147.64441379 165.875 149.23828125 C169.66915519 149.76946298 173.33831178 150.08917473 176.765625 148.19140625 C179.57585213 145.87228678 181.63417792 143.958439 182.1484375 140.28515625 C182.33829043 135.99155926 182.3092668 133.14245161 179.5 129.73828125 C175.68280131 126.10285393 173.31657848 125.84591623 168.203125 125.87890625 C164.28495764 126.48372403 162.57141184 128.40704882 159.875 131.23828125 Z M124.875 237.23828125 C125.875 239.23828125 125.875 239.23828125 125.875 239.23828125 Z M11.875 286.23828125 C7.255 289.20828125 2.635 292.17828125 -2.125 295.23828125 C7.41041306 300.00598778 17.8392113 298.58485397 27.875 296.23828125 C23.07922734 291.938623 17.53278285 289.23758782 11.875 286.23828125 Z " fill="#655AFF" transform="translate(239.125,-0.23828125)"/>
<path d="M0 0 C4.33288544 1.99979328 5.70347705 3.22660317 7.42578125 7.71875 C10.38214261 13.80529517 16.14862272 16.0272891 21.9375 19 C23.13626938 19.63703962 24.33375764 20.27649519 25.5300293 20.91821289 C28.0490895 22.266749 30.57364425 23.60408607 33.10253906 24.93408203 C38.93530316 28.01214998 44.69765666 31.21796545 50.46560669 34.4152832 C52.25057401 35.40322526 54.03777897 36.38697073 55.82592773 37.36914062 C56.95200439 37.98853516 58.07808105 38.60792969 59.23828125 39.24609375 C60.34316895 39.85211426 61.44805664 40.45813477 62.58642578 41.08251953 C64.99748887 42.43686723 67.37184594 43.81340932 69.73779297 45.24169922 C70.35849167 45.61150406 70.97919037 45.9813089 71.61869812 46.36231995 C73.34636791 47.39552308 75.06544796 48.44305058 76.78393555 49.49145508 C81.16217435 51.54513591 84.70126833 51.37933623 89.43359375 51.0390625 C92 51 92 51 95.5625 52.625 C98.87736984 55.85487318 100.89177182 58.44761872 101.09375 63.2109375 C100.7603249 68.22898521 99.82663763 71.49224883 96 75 C92.11377793 77.44276816 88.54504102 77.17394287 84.1484375 76.53125 C80.89465268 75.72667775 79.227207 74.48923136 77 72 C76.70867187 70.94039063 76.41734375 69.88078125 76.1171875 68.7890625 C73.66563612 62.92148987 67.34530333 60.76325949 62 58 C60.79008478 57.35490074 59.58136137 56.70756171 58.3737793 56.05810547 C55.85705703 54.70679103 53.33545025 53.36531075 50.81005859 52.03027344 C45.92241331 49.43733751 41.09048724 46.74655684 36.26000977 44.04907227 C33.97337992 42.77289283 31.6835219 41.50247936 29.39038086 40.23803711 C24.59682741 37.5926966 19.8318784 34.9338516 15.171875 32.05859375 C8.12974913 27.7521531 3.02215159 25.21243433 -5.50390625 25.9296875 C-8 26 -8 26 -11.5625 24.3125 C-15.44768453 20.6265557 -16.83770136 18.46068777 -17.4375 13.0625 C-17.25994127 8.7849487 -15.81013746 6.26583542 -13 3 C-9.04284339 -0.29763051 -5.00383633 -0.85527261 0 0 Z " fill="#655BFF" transform="translate(359,59)"/>
<path d="M0 0 C0.70125 0.00515625 1.4025 0.0103125 2.125 0.015625 C2.82625 0.01046875 3.5275 0.0053125 4.25 0 C6.125 0.265625 6.125 0.265625 8.125 2.265625 C8.375 5.765625 8.375 5.765625 8.125 9.265625 C6.125 11.265625 6.125 11.265625 4.25 11.53125 C3.54875 11.52609375 2.8475 11.5209375 2.125 11.515625 C1.42375 11.52078125 0.7225 11.5259375 0 11.53125 C-1.875 11.265625 -1.875 11.265625 -3.875 9.265625 C-4.125 5.765625 -4.125 5.765625 -3.875 2.265625 C-1.875 0.265625 -1.875 0.265625 0 0 Z " fill="#655BFF" transform="translate(313.875,251.734375)"/>
<path d="M0 0 C0.70125 0.00515625 1.4025 0.0103125 2.125 0.015625 C2.82625 0.01046875 3.5275 0.0053125 4.25 0 C6.125 0.265625 6.125 0.265625 8.125 2.265625 C8.375 5.765625 8.375 5.765625 8.125 9.265625 C6.125 11.265625 6.125 11.265625 4.25 11.53125 C3.54875 11.52609375 2.8475 11.5209375 2.125 11.515625 C1.42375 11.52078125 0.7225 11.5259375 0 11.53125 C-1.875 11.265625 -1.875 11.265625 -3.875 9.265625 C-4.125 5.765625 -4.125 5.765625 -3.875 2.265625 C-1.875 0.265625 -1.875 0.265625 0 0 Z " fill="#655BFF" transform="translate(294.875,251.734375)"/>
<path d="M0 0 C0.70125 0.00515625 1.4025 0.0103125 2.125 0.015625 C2.82625 0.01046875 3.5275 0.0053125 4.25 0 C6.125 0.265625 6.125 0.265625 8.125 2.265625 C8.375 5.765625 8.375 5.765625 8.125 9.265625 C6.125 11.265625 6.125 11.265625 4.25 11.53125 C3.54875 11.52609375 2.8475 11.5209375 2.125 11.515625 C1.42375 11.52078125 0.7225 11.5259375 0 11.53125 C-1.875 11.265625 -1.875 11.265625 -3.875 9.265625 C-4.125 5.765625 -4.125 5.765625 -3.875 2.265625 C-1.875 0.265625 -1.875 0.265625 0 0 Z " fill="#655BFF" transform="translate(205.875,251.734375)"/>
<path d="M0 0 C0.70125 0.00515625 1.4025 0.0103125 2.125 0.015625 C2.82625 0.01046875 3.5275 0.0053125 4.25 0 C6.125 0.265625 6.125 0.265625 8.125 2.265625 C8.375 5.765625 8.375 5.765625 8.125 9.265625 C6.125 11.265625 6.125 11.265625 4.25 11.53125 C3.54875 11.52609375 2.8475 11.5209375 2.125 11.515625 C1.42375 11.52078125 0.7225 11.5259375 0 11.53125 C-1.875 11.265625 -1.875 11.265625 -3.875 9.265625 C-4.125 5.765625 -4.125 5.765625 -3.875 2.265625 C-1.875 0.265625 -1.875 0.265625 0 0 Z " fill="#655BFF" transform="translate(186.875,251.734375)"/>
<path d="M0 0 C0.70125 0.00515625 1.4025 0.0103125 2.125 0.015625 C2.82625 0.01046875 3.5275 0.0053125 4.25 0 C6.125 0.265625 6.125 0.265625 8.125 2.265625 C8.375 5.765625 8.375 5.765625 8.125 9.265625 C6.125 11.265625 6.125 11.265625 4.25 11.53125 C3.54875 11.52609375 2.8475 11.5209375 2.125 11.515625 C1.42375 11.52078125 0.7225 11.5259375 0 11.53125 C-1.875 11.265625 -1.875 11.265625 -3.875 9.265625 C-4.125 5.765625 -4.125 5.765625 -3.875 2.265625 C-1.875 0.265625 -1.875 0.265625 0 0 Z " fill="#655BFF" transform="translate(302.875,236.734375)"/>
<path d="M0 0 C0.70125 0.00515625 1.4025 0.0103125 2.125 0.015625 C2.82625 0.01046875 3.5275 0.0053125 4.25 0 C6.125 0.265625 6.125 0.265625 8.125 2.265625 C8.375 5.765625 8.375 5.765625 8.125 9.265625 C6.125 11.265625 6.125 11.265625 4.25 11.53125 C3.54875 11.52609375 2.8475 11.5209375 2.125 11.515625 C1.42375 11.52078125 0.7225 11.5259375 0 11.53125 C-1.875 11.265625 -1.875 11.265625 -3.875 9.265625 C-4.125 5.765625 -4.125 5.765625 -3.875 2.265625 C-1.875 0.265625 -1.875 0.265625 0 0 Z " fill="#655BFF" transform="translate(196.875,236.734375)"/>
</svg>
